<svg width="27" height="35" viewBox="0 0 27 35" fill="none" xmlns="http://www.w3.org/2000/svg">
<path d="M21.6563 18.092C22.9876 17.3234 24.6899 17.7796 25.4585 19.1108C26.2271 20.4421 25.771 22.1444 24.4397 22.913L8.39961 32.1738C5.73706 33.711 2.33247 32.7987 0.795248 30.1362L21.6563 18.092Z" fill="white"/>
<path d="M18.4475 2.78339C21.1101 1.24617 24.5147 2.15843 26.0519 4.82098L5.19389 16.8634C3.86262 17.632 2.16032 17.1758 1.39171 15.8446C0.623094 14.5133 1.07922 12.811 2.4105 12.0424L18.4475 2.78339Z" fill="white"/>
<path d="M16.3572 12.5253C17.6885 11.7567 19.3908 12.2128 20.1594 13.5441C20.928 14.8753 20.4718 16.5776 19.1406 17.3463L9.96541 22.6435C8.63413 23.4121 6.93183 22.956 6.16322 21.6247C5.39461 20.2935 5.85074 18.5912 7.18201 17.8226L16.3572 12.5253Z" fill="white"/>
</svg>
