<svg width="290" height="279" viewBox="0 0 290 279" fill="none" xmlns="http://www.w3.org/2000/svg">
<path d="M210.604 144.196C221.215 138.07 234.782 141.706 240.908 152.316V152.316C247.034 162.927 243.399 176.494 232.788 182.62L104.947 256.43C83.7257 268.682 56.5906 261.411 44.3387 240.19V240.19L210.604 144.196Z" fill="white"/>
<path d="M185.03 22.1841C206.25 9.93216 233.386 17.203 245.638 38.4239V38.4239L79.396 134.403C68.7856 140.529 55.218 136.894 49.092 126.284V126.284C42.9661 115.673 46.6015 102.106 57.212 95.9796L185.03 22.1841Z" fill="white"/>
<path d="M168.369 99.8283C178.98 93.7023 192.547 97.3377 198.673 107.948V107.948C204.799 118.559 201.164 132.126 190.553 138.252L117.426 180.472C106.815 186.598 93.2476 182.963 87.1217 172.352V172.352C80.9957 161.742 84.6311 148.174 95.2416 142.048L168.369 99.8283Z" fill="white"/>
</svg>
