<svg width="417" height="152" viewBox="0 0 417 152" fill="none" xmlns="http://www.w3.org/2000/svg">
<path d="M93.6969 78.2759C99.4567 74.9504 106.822 76.9239 110.147 82.6837C113.473 88.4435 111.499 95.8085 105.739 99.134L36.3414 139.201C24.8217 145.852 10.0917 141.905 3.44082 130.385L93.6969 78.2759Z" fill="#1F2937"/>
<path d="M79.8137 12.0424C91.3334 5.39159 106.063 9.33849 112.714 20.8581L22.4714 72.9599C16.7116 76.2853 9.34658 74.3118 6.02116 68.552C2.69573 62.7922 4.66919 55.4272 10.429 52.1017L79.8137 12.0424Z" fill="#1F2937"/>
<path d="M70.7697 54.1909C76.5295 50.8655 83.8946 52.8389 87.22 58.5987C90.5454 64.3585 88.572 71.7236 82.8122 75.049L43.1155 97.9679C37.3557 101.293 29.9907 99.3198 26.6653 93.56C23.3398 87.8002 25.3133 80.4352 31.0731 77.1098L70.7697 54.1909Z" fill="#1F2937"/>
<path d="M180.408 63.272C179.928 64.04 179.416 64.616 178.872 65C178.36 65.384 177.688 65.576 176.856 65.576C176.12 65.576 175.32 65.352 174.456 64.904C173.624 64.424 172.664 63.896 171.576 63.32C170.52 62.744 169.304 62.232 167.928 61.784C166.552 61.304 164.984 61.064 163.224 61.064C160.184 61.064 157.912 61.72 156.408 63.032C154.936 64.312 154.2 66.056 154.2 68.264C154.2 69.672 154.648 70.84 155.544 71.768C156.44 72.696 157.608 73.496 159.048 74.168C160.52 74.84 162.184 75.464 164.04 76.04C165.928 76.584 167.848 77.208 169.8 77.912C171.752 78.584 173.656 79.384 175.512 80.312C177.4 81.24 179.064 82.424 180.504 83.864C181.976 85.304 183.16 87.064 184.056 89.144C184.952 91.192 185.4 93.672 185.4 96.584C185.4 99.816 184.84 102.84 183.72 105.656C182.6 108.472 180.968 110.936 178.824 113.048C176.712 115.128 174.088 116.776 170.952 117.992C167.848 119.176 164.312 119.768 160.344 119.768C158.168 119.768 155.944 119.544 153.672 119.096C151.432 118.648 149.256 118.024 147.144 117.224C145.032 116.392 143.048 115.416 141.192 114.296C139.336 113.176 137.72 111.928 136.344 110.552L141.144 102.968C141.528 102.424 142.024 101.976 142.632 101.624C143.272 101.24 143.96 101.048 144.696 101.048C145.656 101.048 146.616 101.352 147.576 101.96C148.568 102.568 149.672 103.24 150.888 103.976C152.136 104.712 153.56 105.384 155.16 105.992C156.76 106.6 158.648 106.904 160.824 106.904C163.768 106.904 166.056 106.264 167.688 104.984C169.32 103.672 170.136 101.608 170.136 98.792C170.136 97.16 169.688 95.832 168.792 94.808C167.896 93.784 166.712 92.936 165.24 92.264C163.8 91.592 162.152 91 160.296 90.488C158.44 89.976 156.536 89.416 154.584 88.808C152.632 88.168 150.728 87.4 148.872 86.504C147.016 85.576 145.352 84.376 143.88 82.904C142.44 81.4 141.272 79.544 140.376 77.336C139.48 75.096 139.032 72.344 139.032 69.08C139.032 66.456 139.56 63.896 140.616 61.4C141.672 58.904 143.224 56.68 145.272 54.728C147.32 52.776 149.832 51.224 152.808 50.072C155.784 48.888 159.192 48.296 163.032 48.296C165.176 48.296 167.256 48.472 169.272 48.824C171.32 49.144 173.256 49.64 175.08 50.312C176.904 50.952 178.6 51.736 180.168 52.664C181.768 53.56 183.192 54.584 184.44 55.736L180.408 63.272ZM263.564 84.008C263.564 89.064 262.684 93.768 260.924 98.12C259.196 102.472 256.748 106.264 253.58 109.496C250.412 112.696 246.588 115.208 242.108 117.032C237.66 118.856 232.716 119.768 227.276 119.768C221.836 119.768 216.876 118.856 212.396 117.032C207.916 115.208 204.076 112.696 200.876 109.496C197.708 106.264 195.244 102.472 193.484 98.12C191.756 93.768 190.892 89.064 190.892 84.008C190.892 78.952 191.756 74.248 193.484 69.896C195.244 65.544 197.708 61.768 200.876 58.568C204.076 55.368 207.916 52.856 212.396 51.032C216.876 49.208 221.836 48.296 227.276 48.296C232.716 48.296 237.66 49.224 242.108 51.08C246.588 52.904 250.412 55.416 253.58 58.616C256.748 61.816 259.196 65.592 260.924 69.944C262.684 74.296 263.564 78.984 263.564 84.008ZM246.956 84.008C246.956 80.552 246.508 77.448 245.612 74.696C244.716 71.912 243.42 69.56 241.724 67.64C240.06 65.72 238.012 64.248 235.58 63.224C233.148 62.2 230.38 61.688 227.276 61.688C224.14 61.688 221.34 62.2 218.876 63.224C216.444 64.248 214.38 65.72 212.684 67.64C211.02 69.56 209.74 71.912 208.844 74.696C207.948 77.448 207.5 80.552 207.5 84.008C207.5 87.496 207.948 90.632 208.844 93.416C209.74 96.168 211.02 98.504 212.684 100.424C214.38 102.344 216.444 103.816 218.876 104.84C221.34 105.832 224.14 106.328 227.276 106.328C230.38 106.328 233.148 105.832 235.58 104.84C238.012 103.816 240.06 102.344 241.724 100.424C243.42 98.504 244.716 96.168 245.612 93.416C246.508 90.632 246.956 87.496 246.956 84.008ZM351.736 49.064V119H337.432V78.776C337.432 77.848 337.448 76.84 337.48 75.752C337.544 74.664 337.64 73.56 337.768 72.44L319.192 108.392C318.616 109.512 317.832 110.36 316.84 110.936C315.88 111.512 314.776 111.8 313.528 111.8H311.32C310.072 111.8 308.952 111.512 307.96 110.936C307 110.36 306.232 109.512 305.656 108.392L287.08 72.344C287.176 73.496 287.256 74.632 287.32 75.752C287.384 76.84 287.416 77.848 287.416 78.776V119H273.112V49.064H285.496C286.2 49.064 286.808 49.08 287.32 49.112C287.864 49.144 288.344 49.24 288.76 49.4C289.176 49.56 289.544 49.816 289.864 50.168C290.216 50.488 290.552 50.952 290.872 51.56L308.872 87.032C309.512 88.248 310.12 89.512 310.696 90.824C311.304 92.136 311.88 93.48 312.424 94.856C312.968 93.448 313.528 92.072 314.104 90.728C314.712 89.384 315.352 88.104 316.024 86.888L333.976 51.56C334.296 50.952 334.616 50.488 334.936 50.168C335.288 49.816 335.672 49.56 336.088 49.4C336.504 49.24 336.968 49.144 337.48 49.112C338.024 49.08 338.648 49.064 339.352 49.064H351.736ZM381.588 61.544V77.864H403.572V89.864H381.588V106.52H410.292V119H365.268V49.064H410.292V61.544H381.588Z" fill="#1F2937"/>
</svg>
